<?xml version="1.0" encoding="UTF-8" standalone="no"?>
<!-- Created with Inkscape (http://www.inkscape.org/) -->

<svg
   xmlns:dc="http://purl.org/dc/elements/1.1/"
   xmlns:cc="http://creativecommons.org/ns#"
   xmlns:rdf="http://www.w3.org/1999/02/22-rdf-syntax-ns#"
   xmlns:svg="http://www.w3.org/2000/svg"
   xmlns="http://www.w3.org/2000/svg"
   xmlns:xlink="http://www.w3.org/1999/xlink"
   xmlns:sodipodi="http://sodipodi.sourceforge.net/DTD/sodipodi-0.dtd"
   xmlns:inkscape="http://www.inkscape.org/namespaces/inkscape"
   id="svg2"
   version="1.1"
   inkscape:version="0.48.3.1 r9886"
   width="22"
   height="22"
   sodipodi:docname="source.svg"
   inkscape:export-filename="/home/lean/projects/fbnotify/icons/22/icon-error.png"
   inkscape:export-xdpi="90"
   inkscape:export-ydpi="90"
   enable-background="new">
  <metadata
     id="metadata8">
    <rdf:RDF>
      <cc:Work
         rdf:about="">
        <dc:format>image/svg+xml</dc:format>
        <dc:type
           rdf:resource="http://purl.org/dc/dcmitype/StillImage" />
        <dc:title></dc:title>
      </cc:Work>
    </rdf:RDF>
  </metadata>
  <defs
     id="defs6">
    <inkscape:perspective
       sodipodi:type="inkscape:persp3d"
       inkscape:vp_x="0 : 11 : 1"
       inkscape:vp_y="0 : 1000 : 0"
       inkscape:vp_z="22 : 11 : 1"
       inkscape:persp3d-origin="11 : 7.3333333 : 1"
       id="perspective3864" />
    <linearGradient
       id="linearGradient3917">
      <stop
         style="stop-color:#d24949;stop-opacity:1;"
         offset="0"
         id="stop3919" />
      <stop
         id="stop3925"
         offset="0.69999999"
         style="stop-color:#b43434;stop-opacity:1;" />
      <stop
         style="stop-color:#991b1b;stop-opacity:1;"
         offset="1"
         id="stop3921" />
    </linearGradient>
    <linearGradient
       id="linearGradient3763">
      <stop
         style="stop-color:#ffffff;stop-opacity:1;"
         offset="0"
         id="stop3765" />
      <stop
         style="stop-color:#e6e6e6;stop-opacity:1;"
         offset="1"
         id="stop3767" />
    </linearGradient>
    <linearGradient
       inkscape:collect="always"
       xlink:href="#linearGradient3763-0"
       id="linearGradient3769-9"
       x1="1"
       y1="8"
       x2="15"
       y2="8"
       gradientUnits="userSpaceOnUse"
       gradientTransform="translate(0,-16)" />
    <linearGradient
       id="linearGradient3763-0">
      <stop
         style="stop-color:#ff5959;stop-opacity:1;"
         offset="0"
         id="stop3765-9" />
      <stop
         id="stop3858"
         offset="0.69999999"
         style="stop-color:#de4040;stop-opacity:1;" />
      <stop
         style="stop-color:#bd2121;stop-opacity:1;"
         offset="1"
         id="stop3767-9" />
    </linearGradient>
    <linearGradient
       inkscape:collect="always"
       xlink:href="#linearGradient3763-0"
       id="linearGradient3866"
       x1="8.125"
       y1="0.9375"
       x2="8.125"
       y2="15.008886"
       gradientUnits="userSpaceOnUse"
       gradientTransform="matrix(1.0060977,0,0,1.0060977,3.9512191,-3.2196729)" />
    <linearGradient
       inkscape:collect="always"
       xlink:href="#linearGradient3763-0-2"
       id="linearGradient3866-8"
       x1="8.125"
       y1="0.9375"
       x2="8.125"
       y2="15.008886"
       gradientUnits="userSpaceOnUse" />
    <linearGradient
       id="linearGradient3763-0-2">
      <stop
         style="stop-color:#59caff;stop-opacity:1;"
         offset="0"
         id="stop3765-9-8" />
      <stop
         id="stop3858-6"
         offset="0.69999999"
         style="stop-color:#408ade;stop-opacity:1;" />
      <stop
         style="stop-color:#216bbd;stop-opacity:1;"
         offset="1"
         id="stop3767-9-9" />
    </linearGradient>
    <linearGradient
       inkscape:collect="always"
       xlink:href="#linearGradient3917"
       id="linearGradient3923"
       x1="8.026288"
       y1="0.02628831"
       x2="8.026288"
       y2="16.008997"
       gradientUnits="userSpaceOnUse"
       gradientTransform="matrix(1.0060977,0,0,1.0060977,3.9512191,-3.2196729)" />
    <linearGradient
       inkscape:collect="always"
       xlink:href="#linearGradient3763-0-2"
       id="linearGradient4003"
       gradientUnits="userSpaceOnUse"
       x1="8.125"
       y1="0.9375"
       x2="8.125"
       y2="15.008886"
       gradientTransform="matrix(1.0060977,0,0,1.0060977,3.9512191,-3.2196729)" />
    <linearGradient
       inkscape:collect="always"
       xlink:href="#linearGradient3763-0-2"
       id="linearGradient4005"
       gradientUnits="userSpaceOnUse"
       x1="8.026288"
       y1="0.02628831"
       x2="8.026288"
       y2="16.008997"
       gradientTransform="matrix(1.375,0,0,1.375,1,-6)" />
    <linearGradient
       inkscape:collect="always"
       xlink:href="#linearGradient3763-0-2-7"
       id="linearGradient4005-1"
       gradientUnits="userSpaceOnUse"
       x1="8.026288"
       y1="0.02628831"
       x2="8.026288"
       y2="16.008997"
       gradientTransform="matrix(1.375,0,0,1.375,1,-6)" />
    <linearGradient
       id="linearGradient3763-0-2-7">
      <stop
         style="stop-color:#59caff;stop-opacity:1;"
         offset="0"
         id="stop3765-9-8-3" />
      <stop
         id="stop3858-6-6"
         offset="0.69999999"
         style="stop-color:#408ade;stop-opacity:1;" />
      <stop
         style="stop-color:#216bbd;stop-opacity:1;"
         offset="1"
         id="stop3767-9-9-4" />
    </linearGradient>
    <linearGradient
       y2="16.008997"
       x2="8.026288"
       y1="0.02628831"
       x1="8.026288"
       gradientTransform="matrix(1.375,0,0,1.375,11.375,-15.3125)"
       gradientUnits="userSpaceOnUse"
       id="linearGradient3814"
       xlink:href="#linearGradient3763-0-2-7"
       inkscape:collect="always" />
    <linearGradient
       inkscape:collect="always"
       xlink:href="#linearGradient3763-0-2"
       id="linearGradient3841"
       gradientUnits="userSpaceOnUse"
       gradientTransform="matrix(1.0060977,0,0,1.0060977,3.9512191,-3.2196729)"
       x1="8.026288"
       y1="0.02628831"
       x2="8.026288"
       y2="16.008997" />
    <linearGradient
       inkscape:collect="always"
       xlink:href="#linearGradient3917-9"
       id="linearGradient3923-5"
       x1="8.026288"
       y1="0.02628831"
       x2="8.026288"
       y2="16.008997"
       gradientUnits="userSpaceOnUse"
       gradientTransform="matrix(1.375,0,0,1.375,1,-6)" />
    <linearGradient
       id="linearGradient3917-9">
      <stop
         style="stop-color:#d24949;stop-opacity:1;"
         offset="0"
         id="stop3919-7" />
      <stop
         id="stop3925-5"
         offset="0.69999999"
         style="stop-color:#b43434;stop-opacity:1;" />
      <stop
         style="stop-color:#991b1b;stop-opacity:1;"
         offset="1"
         id="stop3921-1" />
    </linearGradient>
    <linearGradient
       inkscape:collect="always"
       xlink:href="#linearGradient3763"
       id="linearGradient3797"
       gradientUnits="userSpaceOnUse"
       gradientTransform="matrix(0,1.0060977,-1.0060977,0,20.048774,-3.2196729)"
       x1="1"
       y1="8"
       x2="15"
       y2="8" />
    <linearGradient
       inkscape:collect="always"
       xlink:href="#linearGradient3763"
       id="linearGradient3914"
       gradientUnits="userSpaceOnUse"
       gradientTransform="matrix(0,1.2743905,-1.2743905,0,21.195114,0.7469511)"
       x1="1"
       y1="8"
       x2="15"
       y2="8" />
    <linearGradient
       inkscape:collect="always"
       xlink:href="#linearGradient3763"
       id="linearGradient3964"
       gradientUnits="userSpaceOnUse"
       gradientTransform="matrix(0,1.2743905,-1.2743905,0,21.195114,0.7469511)"
       x1="1"
       y1="8"
       x2="15"
       y2="8" />
    <linearGradient
       inkscape:collect="always"
       xlink:href="#linearGradient3763-5"
       id="linearGradient3797-3"
       gradientUnits="userSpaceOnUse"
       gradientTransform="matrix(0,1.2743905,-1.2743905,0,22.195114,-5.2530489)"
       x1="1"
       y1="8"
       x2="15"
       y2="8" />
    <linearGradient
       id="linearGradient3763-5">
      <stop
         style="stop-color:#ffffff;stop-opacity:1;"
         offset="0"
         id="stop3765-7" />
      <stop
         style="stop-color:#e6e6e6;stop-opacity:1;"
         offset="1"
         id="stop3767-2" />
    </linearGradient>
    <linearGradient
       y2="8"
       x2="15"
       y1="8"
       x1="1"
       gradientTransform="matrix(0,1.3571429,-1.3571429,0,21.857131,0.14285618)"
       gradientUnits="userSpaceOnUse"
       id="linearGradient3950-2"
       xlink:href="#linearGradient3763-5-3"
       inkscape:collect="always" />
    <linearGradient
       id="linearGradient3763-5-3">
      <stop
         style="stop-color:#ffffff;stop-opacity:1;"
         offset="0"
         id="stop3765-7-6" />
      <stop
         style="stop-color:#e6e6e6;stop-opacity:1;"
         offset="1"
         id="stop3767-2-7" />
    </linearGradient>
    <linearGradient
       inkscape:collect="always"
       xlink:href="#linearGradient3763-5-9"
       id="linearGradient4125-4"
       gradientUnits="userSpaceOnUse"
       gradientTransform="matrix(0,1.3571429,-1.3571429,0,21.857131,0.14285618)"
       x1="1"
       y1="8"
       x2="15"
       y2="8" />
    <linearGradient
       id="linearGradient3763-5-9">
      <stop
         style="stop-color:#ffffff;stop-opacity:1;"
         offset="0"
         id="stop3765-7-62" />
      <stop
         style="stop-color:#e6e6e6;stop-opacity:1;"
         offset="1"
         id="stop3767-2-1" />
    </linearGradient>
    <linearGradient
       inkscape:collect="always"
       xlink:href="#linearGradient3763-5-2"
       id="linearGradient4174-4"
       x1="10.957231"
       y1="1.4580429"
       x2="10.957231"
       y2="20.565556"
       gradientUnits="userSpaceOnUse" />
    <linearGradient
       id="linearGradient3763-5-2">
      <stop
         style="stop-color:#ffffff;stop-opacity:1;"
         offset="0"
         id="stop3765-7-3" />
      <stop
         style="stop-color:#e6e6e6;stop-opacity:1;"
         offset="1"
         id="stop3767-2-0" />
    </linearGradient>
    <linearGradient
       inkscape:collect="always"
       xlink:href="#linearGradient3763-1"
       id="linearGradient3797-6"
       gradientUnits="userSpaceOnUse"
       gradientTransform="matrix(0,1.2743905,-1.2743905,0,22.195114,-5.2530489)"
       x1="1"
       y1="8"
       x2="15"
       y2="8" />
    <linearGradient
       id="linearGradient3763-1">
      <stop
         style="stop-color:#ffffff;stop-opacity:1;"
         offset="0"
         id="stop3765-0" />
      <stop
         style="stop-color:#e6e6e6;stop-opacity:1;"
         offset="1"
         id="stop3767-1" />
    </linearGradient>
    <linearGradient
       inkscape:collect="always"
       xlink:href="#linearGradient3763-5"
       id="linearGradient4344"
       gradientUnits="userSpaceOnUse"
       x1="10.957231"
       y1="1.4580429"
       x2="10.957231"
       y2="20.565556" />
    <linearGradient
       inkscape:collect="always"
       xlink:href="#linearGradient3763-5-4"
       id="linearGradient4344-7"
       gradientUnits="userSpaceOnUse"
       x1="10.957231"
       y1="1.4580429"
       x2="10.957231"
       y2="20.565556" />
    <linearGradient
       id="linearGradient3763-5-4">
      <stop
         style="stop-color:#ffffff;stop-opacity:1;"
         offset="0"
         id="stop3765-7-9" />
      <stop
         style="stop-color:#e6e6e6;stop-opacity:1;"
         offset="1"
         id="stop3767-2-5" />
    </linearGradient>
    <linearGradient
       inkscape:collect="always"
       xlink:href="#linearGradient3763-0-2"
       id="linearGradient4387"
       gradientUnits="userSpaceOnUse"
       x1="10.957231"
       y1="1.4580429"
       x2="10.957231"
       y2="20.565556" />
    <linearGradient
       inkscape:collect="always"
       xlink:href="#linearGradient3763-0-2-4"
       id="linearGradient4387-1"
       gradientUnits="userSpaceOnUse"
       x1="10.957231"
       y1="1.4580429"
       x2="10.957231"
       y2="20.565556" />
    <linearGradient
       id="linearGradient3763-0-2-4">
      <stop
         style="stop-color:#59caff;stop-opacity:1;"
         offset="0"
         id="stop3765-9-8-0" />
      <stop
         id="stop3858-6-0"
         offset="0.69999999"
         style="stop-color:#408ade;stop-opacity:1;" />
      <stop
         style="stop-color:#216bbd;stop-opacity:1;"
         offset="1"
         id="stop3767-9-9-3" />
    </linearGradient>
    <linearGradient
       inkscape:collect="always"
       xlink:href="#linearGradient3763-0-2-4"
       id="linearGradient4440"
       x1="11.039064"
       y1="0.53988618"
       x2="11.039064"
       y2="21.474977"
       gradientUnits="userSpaceOnUse" />
    <linearGradient
       inkscape:collect="always"
       xlink:href="#linearGradient3763-0"
       id="linearGradient4450"
       gradientUnits="userSpaceOnUse"
       x1="10.957231"
       y1="1.4580429"
       x2="10.957231"
       y2="20.565556" />
    <linearGradient
       inkscape:collect="always"
       xlink:href="#linearGradient3917-9"
       id="linearGradient4452"
       gradientUnits="userSpaceOnUse"
       x1="11.039064"
       y1="0.53988618"
       x2="11.039064"
       y2="21.474977" />
    <linearGradient
       inkscape:collect="always"
       xlink:href="#linearGradient3763"
       id="linearGradient3851"
       gradientUnits="userSpaceOnUse"
       gradientTransform="matrix(0,1.0060977,-1.0060977,0,20.048774,-3.2196729)"
       x1="1"
       y1="8"
       x2="15"
       y2="8" />
    <linearGradient
       inkscape:collect="always"
       xlink:href="#linearGradient3763-8"
       id="linearGradient3851-9"
       gradientUnits="userSpaceOnUse"
       gradientTransform="matrix(0,1.2743905,-1.2743905,0,21.195114,0.7469511)"
       x1="1"
       y1="8"
       x2="15"
       y2="8" />
    <linearGradient
       id="linearGradient3763-8">
      <stop
         style="stop-color:#ffffff;stop-opacity:1;"
         offset="0"
         id="stop3765-2" />
      <stop
         style="stop-color:#e6e6e6;stop-opacity:1;"
         offset="1"
         id="stop3767-5" />
    </linearGradient>
    <linearGradient
       inkscape:collect="always"
       xlink:href="#linearGradient3763"
       id="linearGradient4399"
       gradientUnits="userSpaceOnUse"
       gradientTransform="matrix(0,1.2743905,-1.2743905,0,21.195114,0.7469511)"
       x1="1"
       y1="8"
       x2="15"
       y2="8" />
    <linearGradient
       inkscape:collect="always"
       xlink:href="#linearGradient3763"
       id="linearGradient4402"
       gradientUnits="userSpaceOnUse"
       gradientTransform="matrix(0,1.2743905,-1.2743905,0,21.195114,0.7469511)"
       x1="1"
       y1="8"
       x2="15"
       y2="8" />
    <linearGradient
       inkscape:collect="always"
       xlink:href="#linearGradient3763"
       id="linearGradient4405"
       gradientUnits="userSpaceOnUse"
       gradientTransform="matrix(0,1.0060977,-1.0060977,0,20.048774,-3.2196729)"
       x1="1"
       y1="8"
       x2="15"
       y2="8" />
    <linearGradient
       inkscape:collect="always"
       xlink:href="#linearGradient3763"
       id="linearGradient4412"
       gradientUnits="userSpaceOnUse"
       gradientTransform="matrix(0,1.2743905,-1.2743905,0,21.195114,0.7469511)"
       x1="1"
       y1="8"
       x2="15"
       y2="8" />
    <linearGradient
       inkscape:collect="always"
       xlink:href="#linearGradient3763"
       id="linearGradient4415"
       gradientUnits="userSpaceOnUse"
       gradientTransform="matrix(0,1.2743905,-1.2743905,0,21.195114,0.7469511)"
       x1="1"
       y1="8"
       x2="15"
       y2="8" />
    <linearGradient
       inkscape:collect="always"
       xlink:href="#linearGradient3763"
       id="linearGradient4418"
       gradientUnits="userSpaceOnUse"
       gradientTransform="matrix(0,1.2743905,-1.2743905,0,21.195114,0.7469511)"
       x1="1"
       y1="8"
       x2="15"
       y2="8" />
    <linearGradient
       inkscape:collect="always"
       xlink:href="#linearGradient3763"
       id="linearGradient4425"
       gradientUnits="userSpaceOnUse"
       gradientTransform="matrix(0,1.2743905,-1.2743905,0,21.195114,0.7469511)"
       x1="1"
       y1="8"
       x2="15"
       y2="8" />
    <linearGradient
       inkscape:collect="always"
       xlink:href="#linearGradient3763"
       id="linearGradient4428"
       gradientUnits="userSpaceOnUse"
       gradientTransform="matrix(0,1.2743905,-1.2743905,0,21.195114,0.7469511)"
       x1="1"
       y1="8"
       x2="15"
       y2="8" />
    <linearGradient
       inkscape:collect="always"
       xlink:href="#linearGradient3763"
       id="linearGradient4431"
       gradientUnits="userSpaceOnUse"
       gradientTransform="matrix(0,1.0060977,-1.0060977,0,20.048774,-3.2196729)"
       x1="1"
       y1="8"
       x2="15"
       y2="8" />
    <linearGradient
       inkscape:collect="always"
       xlink:href="#linearGradient3763"
       id="linearGradient4438"
       gradientUnits="userSpaceOnUse"
       gradientTransform="matrix(0,1.2743905,-1.2743905,0,21.195114,0.7469511)"
       x1="1"
       y1="8"
       x2="15"
       y2="8" />
    <linearGradient
       inkscape:collect="always"
       xlink:href="#linearGradient3763"
       id="linearGradient4441"
       gradientUnits="userSpaceOnUse"
       gradientTransform="matrix(0,1.2743905,-1.2743905,0,21.195114,0.7469511)"
       x1="1"
       y1="8"
       x2="15"
       y2="8" />
    <linearGradient
       inkscape:collect="always"
       xlink:href="#linearGradient3763"
       id="linearGradient4444"
       gradientUnits="userSpaceOnUse"
       gradientTransform="matrix(0,1.0060977,-1.0060977,0,20.048774,-3.2196729)"
       x1="1"
       y1="8"
       x2="15"
       y2="8" />
    <linearGradient
       inkscape:collect="always"
       xlink:href="#linearGradient3763"
       id="linearGradient4451"
       gradientUnits="userSpaceOnUse"
       gradientTransform="matrix(0,1.2743905,-1.2743905,0,21.195114,0.7469511)"
       x1="1"
       y1="8"
       x2="15"
       y2="8" />
    <linearGradient
       inkscape:collect="always"
       xlink:href="#linearGradient3763"
       id="linearGradient4454"
       gradientUnits="userSpaceOnUse"
       gradientTransform="matrix(0,1.2743905,-1.2743905,0,21.195114,0.7469511)"
       x1="1"
       y1="8"
       x2="15"
       y2="8" />
    <linearGradient
       inkscape:collect="always"
       xlink:href="#linearGradient3763"
       id="linearGradient4457"
       gradientUnits="userSpaceOnUse"
       gradientTransform="matrix(0,1.0060977,-1.0060977,0,20.048774,-3.2196729)"
       x1="1"
       y1="8"
       x2="15"
       y2="8" />
    <linearGradient
       inkscape:collect="always"
       xlink:href="#linearGradient3763-11"
       id="linearGradient4405-4"
       gradientUnits="userSpaceOnUse"
       gradientTransform="matrix(0,1.2743905,-1.2743905,0,21.195114,0.7469511)"
       x1="1"
       y1="8"
       x2="15"
       y2="8" />
    <linearGradient
       id="linearGradient3763-11">
      <stop
         style="stop-color:#ffffff;stop-opacity:1;"
         offset="0"
         id="stop3765-1" />
      <stop
         style="stop-color:#e6e6e6;stop-opacity:1;"
         offset="1"
         id="stop3767-0" />
    </linearGradient>
    <linearGradient
       inkscape:collect="always"
       xlink:href="#linearGradient3763-3"
       id="linearGradient4418-3"
       gradientUnits="userSpaceOnUse"
       gradientTransform="matrix(0,1.2743905,-1.2743905,0,21.195114,0.7469511)"
       x1="1"
       y1="8"
       x2="15"
       y2="8" />
    <linearGradient
       id="linearGradient3763-3">
      <stop
         style="stop-color:#ffffff;stop-opacity:1;"
         offset="0"
         id="stop3765-5" />
      <stop
         style="stop-color:#e6e6e6;stop-opacity:1;"
         offset="1"
         id="stop3767-21" />
    </linearGradient>
    <linearGradient
       inkscape:collect="always"
       xlink:href="#linearGradient3763"
       id="linearGradient4598"
       gradientUnits="userSpaceOnUse"
       gradientTransform="matrix(0,1.0060977,-1.0060977,0,20.048774,-3.2196729)"
       x1="1"
       y1="8"
       x2="15"
       y2="8" />
    <linearGradient
       inkscape:collect="always"
       xlink:href="#linearGradient3763-88"
       id="linearGradient4431-0"
       gradientUnits="userSpaceOnUse"
       gradientTransform="matrix(0,1.2743905,-1.2743905,0,21.195114,0.7469511)"
       x1="1"
       y1="8"
       x2="15"
       y2="8" />
    <linearGradient
       id="linearGradient3763-88">
      <stop
         style="stop-color:#ffffff;stop-opacity:1;"
         offset="0"
         id="stop3765-07" />
      <stop
         style="stop-color:#e6e6e6;stop-opacity:1;"
         offset="1"
         id="stop3767-4" />
    </linearGradient>
    <linearGradient
       inkscape:collect="always"
       xlink:href="#linearGradient3763-09"
       id="linearGradient4444-3"
       gradientUnits="userSpaceOnUse"
       gradientTransform="matrix(0,1.2743905,-1.2743905,0,21.195114,0.7469511)"
       x1="1"
       y1="8"
       x2="15"
       y2="8" />
    <linearGradient
       id="linearGradient3763-09">
      <stop
         style="stop-color:#ffffff;stop-opacity:1;"
         offset="0"
         id="stop3765-4" />
      <stop
         style="stop-color:#e6e6e6;stop-opacity:1;"
         offset="1"
         id="stop3767-3" />
    </linearGradient>
    <linearGradient
       inkscape:collect="always"
       xlink:href="#linearGradient3763-7"
       id="linearGradient4457-7"
       gradientUnits="userSpaceOnUse"
       gradientTransform="matrix(0,1.2743905,-1.2743905,0,21.195114,0.7469511)"
       x1="1"
       y1="8"
       x2="15"
       y2="8" />
    <linearGradient
       id="linearGradient3763-7">
      <stop
         style="stop-color:#ffffff;stop-opacity:1;"
         offset="0"
         id="stop3765-72" />
      <stop
         style="stop-color:#e6e6e6;stop-opacity:1;"
         offset="1"
         id="stop3767-46" />
    </linearGradient>
  </defs>
  <sodipodi:namedview
     pagecolor="#808080"
     bordercolor="#666666"
     borderopacity="1"
     objecttolerance="10"
     gridtolerance="10"
     guidetolerance="10"
     inkscape:pageopacity="0"
     inkscape:pageshadow="2"
     inkscape:window-width="1024"
     inkscape:window-height="768"
     id="namedview4"
     showgrid="false"
     inkscape:zoom="4"
     inkscape:cx="-8.6085082"
     inkscape:cy="-1.8033643"
     inkscape:window-x="0"
     inkscape:window-y="0"
     inkscape:window-maximized="1"
     inkscape:current-layer="g4447"
     fit-margin-top="0"
     fit-margin-left="0"
     fit-margin-right="0"
     fit-margin-bottom="0" />
  <g
     inkscape:groupmode="layer"
     id="layer1"
     inkscape:label="Idle"
     style="display:inline"
     transform="translate(-1,6)"
     sodipodi:insensitive="true">
    <path
       id="path3833-5"
       d="m 6.9695124,-1.4239423 c -1.1147563,0 -2.0121956,0.8974394 -2.0121956,2.01219501 l 0,10.06097429 c 0,1.114754 0.8974393,2.012191 2.0121956,2.012191 l 10.0609696,0 c 1.114766,0 2.012203,-0.897437 2.012203,-2.012191 l 0,-10.06097429 c 0,-1.11475561 -0.897437,-2.01219501 -2.012203,-2.01219501 l -10.0609696,0 z m 7.0426786,2.01219501 2.012202,0 0,2.01219479 c 0,0 -0.783902,-0.00198 -1.006101,0 -1.077486,0.00941 -1.006101,1.0060978 -1.006101,1.0060978 l 2.012202,0 0,2.0121958 -2.012202,0 0,5.0304859 -2.01219,0 0,-5.0304859 -2.012196,0.031437 0,-2.075077 2.012196,0.031436 c 0,0 -6.1e-4,-0.3144022 0,-1.0060973 0.0019,-2.01396676 2.01219,-2.01219537 2.01219,-2.01219537 z"
       style="opacity:0.5;fill:#000000;fill-opacity:1;fill-rule:nonzero;stroke:none;display:inline"
       inkscape:connector-curvature="0" />
    <path
       style="fill:url(#linearGradient3797);fill-opacity:1;fill-rule:nonzero;stroke:none"
       d="m 6.9695124,-2.2135752 c -1.1147563,0 -2.0121956,0.8974394 -2.0121956,2.01219556 l 0,10.06097204 c 0,1.1147646 0.8974393,2.0122016 2.0121956,2.0122016 l 10.0609696,0 c 1.114766,0 2.012203,-0.897437 2.012203,-2.0122016 l 0,-10.06097215 c 0,-1.11475605 -0.897437,-2.01219545 -2.012203,-2.01219545 l -10.0609696,0 z m 7.0426786,2.01219556 2.012202,0 0,2.01219454 c 0,0 -0.783902,-0.00198 -1.006101,0 -1.077487,0.00941 -1.006101,1.0060975 -1.006101,1.0060975 l 2.012202,0 0,2.0121956 -2.012202,0 0,5.0304844 -2.012191,0 0,-5.0304844 -2.012195,0.031436 0,-2.0750766 L 12,2.8169114 c 0,0 -6.1e-4,-0.3144027 0,-1.0060977 0.0018,-2.01396602 2.012191,-2.01219441 2.012191,-2.01219441 z"
       id="rect2993"
       inkscape:connector-curvature="0" />
  </g>
  <g
     transform="translate(-1,6)"
     style="display:none"
     inkscape:label="UpdatingBase"
     id="g3075"
     inkscape:groupmode="layer"
     sodipodi:insensitive="true">
    <path
       style="fill:url(#linearGradient3851);fill-opacity:1;fill-rule:nonzero;stroke:none"
       d="m 6.9671052,-2.2057527 c -1.1147561,0 -1.9983552,0.8835993 -1.9983552,1.99835538 l 0,10.06578972 c 0,1.1147646 0.8835991,2.0230256 1.9983552,2.0230256 l 10.0657888,0 c 1.114765,0 1.998356,-0.908261 1.998356,-2.0230256 l 0,-10.06578972 c 0,-1.11475608 -0.883591,-1.99835538 -1.998356,-1.99835538 l -10.0657888,0 z"
       id="path3079"
       inkscape:connector-curvature="0" />
  </g>
  <g
     inkscape:groupmode="layer"
     id="g4447"
     inkscape:label="Updating5"
     style="display:none"
     transform="translate(-1,6)"
     sodipodi:insensitive="true">
    <path
       style="opacity:0.5;fill:#000000;fill-opacity:1;fill-rule:nonzero;stroke:none;display:inline"
       d="m 6.9671052,-1.4162789 c -1.1147561,0 -1.9983552,0.8835993 -1.9983552,1.99835526 l 0,10.06578964 c 0,1.114765 0.8835991,2.023026 1.9983552,2.023026 l 10.0657888,0 c 1.114765,0 1.998356,-0.908261 1.998356,-2.023026 l 0,-10.06578964 c 0,-1.11475596 -0.883591,-1.99835526 -1.998356,-1.99835526 l -10.0657888,0 z m 6.7105268,4.4407894 1.726974,0 0,5.2796052 -1.726974,0 0,-5.2796052 z m -5.0822372,0.493421 1.7269732,0 0,4.2927632 -1.7269732,0 0,-4.2927632 z m 2.5411182,0 1.726973,0 0,4.2927632 -1.726972,0 0,-4.2927632 z"
       id="path4449-9"
       inkscape:connector-curvature="0" />
    <path
       style="fill:url(#linearGradient4457);fill-opacity:1;fill-rule:nonzero;stroke:none"
       d="m 6.9671052,-2.2057527 c -1.1147561,0 -1.9983552,0.8835993 -1.9983552,1.99835538 l 0,10.06578972 c 0,1.1147646 0.8835991,2.0230256 1.9983552,2.0230256 l 10.0657888,0 c 1.114765,0 1.998356,-0.908261 1.998356,-2.0230256 l 0,-10.06578972 c 0,-1.11475608 -0.883591,-1.99835538 -1.998356,-1.99835538 l -10.0657888,0 z m 6.7105268,4.4407895 1.726974,0 0,5.2796053 -1.726974,0 0,-5.2796053 z m -5.0822372,0.4934211 1.7269732,0 0,4.2927632 -1.7269732,0 0,-4.2927632 z m 2.5411182,0 1.726973,0 0,4.2927632 -1.726972,0 0,-4.2927632 z"
       id="path4449"
       inkscape:connector-curvature="0" />
  </g>
  <g
     inkscape:groupmode="layer"
     id="g4434"
     inkscape:label="Updating4"
     style="display:none"
     transform="translate(-1,6)"
     sodipodi:insensitive="true">
    <path
       style="opacity:0.5;fill:#000000;fill-opacity:1;fill-rule:nonzero;stroke:none;display:inline"
       d="m 6.9671052,-1.4162789 c -1.1147561,0 -1.9983552,0.8835993 -1.9983552,1.99835526 l 0,10.06578964 c 0,1.114765 0.8835991,2.023026 1.9983552,2.023026 l 10.0657888,0 c 1.114765,0 1.998356,-0.908261 1.998356,-2.023026 l 0,-10.06578964 c 0,-1.11475596 -0.883591,-1.99835526 -1.998356,-1.99835526 l -10.0657888,0 z m 6.7105268,3.6759868 1.726974,0 0,6.8092103 -1.726974,0 0,-6.8092103 z m -2.541118,0.7648026 1.726972,0 0,5.2796052 -1.726972,0 0,-5.2796052 z m -2.5411192,0.493421 1.7269732,0 0,4.2927634 -1.7269732,0 0,-4.2927634 z"
       id="path4436-1"
       inkscape:connector-curvature="0" />
    <path
       style="fill:url(#linearGradient4444);fill-opacity:1;fill-rule:nonzero;stroke:none"
       d="m 6.9671052,-2.2057527 c -1.1147561,0 -1.9983552,0.8835993 -1.9983552,1.99835538 l 0,10.06578972 c 0,1.1147646 0.8835991,2.0230256 1.9983552,2.0230256 l 10.0657888,0 c 1.114765,0 1.998356,-0.908261 1.998356,-2.0230256 l 0,-10.06578972 c 0,-1.11475608 -0.883591,-1.99835538 -1.998356,-1.99835538 l -10.0657888,0 z m 6.7105268,3.675987 1.726974,0 0,6.8092104 -1.726974,0 0,-6.8092104 z m -2.541118,0.7648025 1.726972,0 0,5.2796053 -1.726972,0 0,-5.2796053 z m -2.5411192,0.4934211 1.7269732,0 0,4.2927632 -1.7269732,0 0,-4.2927632 z"
       id="path4436"
       inkscape:connector-curvature="0" />
  </g>
  <g
     inkscape:groupmode="layer"
     id="g4421"
     inkscape:label="Updating3"
     style="display:none"
     transform="translate(-1,6)"
     sodipodi:insensitive="true">
    <path
       style="opacity:0.5;fill:#000000;fill-opacity:1;fill-rule:nonzero;stroke:none;display:inline"
       d="m 6.9671052,-1.4162789 c -1.1147561,0 -1.9983552,0.8835993 -1.9983552,1.99835526 l 0,10.06578964 c 0,1.114765 0.8835991,2.023026 1.9983552,2.023026 l 10.0657888,0 c 1.114765,0 1.998356,-0.908261 1.998356,-2.023026 l 0,-10.06578964 c 0,-1.11475596 -0.883591,-1.99835526 -1.998356,-1.99835526 l -10.0657888,0 z m 4.1694088,3.6759868 1.726972,0 0,6.8092103 -1.726972,0 0,-6.8092103 z m -2.5411192,0.7648026 1.7269732,0 0,5.2796052 -1.7269732,0 0,-5.2796052 z m 5.0822372,0.493421 1.726974,0 0,4.2927634 -1.726974,0 0,-4.2927634 z"
       id="path4423-7"
       inkscape:connector-curvature="0" />
    <path
       style="fill:url(#linearGradient4431);fill-opacity:1;fill-rule:nonzero;stroke:none"
       d="m 6.9671052,-2.2057527 c -1.1147561,0 -1.9983552,0.8835993 -1.9983552,1.99835538 l 0,10.06578972 c 0,1.1147646 0.8835991,2.0230256 1.9983552,2.0230256 l 10.0657888,0 c 1.114765,0 1.998356,-0.908261 1.998356,-2.0230256 l 0,-10.06578972 c 0,-1.11475608 -0.883591,-1.99835538 -1.998356,-1.99835538 l -10.0657888,0 z m 4.1694088,3.675987 1.726972,0 0,6.8092104 -1.726972,0 0,-6.8092104 z m -2.5411192,0.7648025 1.7269732,0 0,5.2796053 -1.7269732,0 0,-5.2796053 z m 5.0822372,0.4934211 1.726974,0 0,4.2927632 -1.726974,0 0,-4.2927632 z"
       id="path4423"
       inkscape:connector-curvature="0" />
  </g>
  <g
     inkscape:groupmode="layer"
     id="g4408"
     inkscape:label="Updating2"
     style="display:none"
     transform="translate(-1,6)"
     sodipodi:insensitive="true">
    <path
       style="opacity:0.5;fill:#000000;fill-opacity:1;fill-rule:nonzero;stroke:none;display:inline"
       d="m 6.9671052,-1.4162789 c -1.1147561,0 -1.9983552,0.8835993 -1.9983552,1.99835526 l 0,10.06578964 c 0,1.114765 0.8835991,2.023026 1.9983552,2.023026 l 10.0657888,0 c 1.114765,0 1.998356,-0.908261 1.998356,-2.023026 l 0,-10.06578964 c 0,-1.11475596 -0.883591,-1.99835526 -1.998356,-1.99835526 l -10.0657888,0 z m 1.6282896,3.6759868 1.7269732,0 0,6.8092103 -1.7269732,0 0,-6.8092103 z m 2.5411182,1.2582236 1.726973,0 0,4.2927632 -1.726972,0 0,-4.2927632 z m 2.541119,0 1.726974,0 0,4.2927632 -1.726974,0 0,-4.2927632 z"
       id="path4410-9"
       inkscape:connector-curvature="0" />
    <path
       style="fill:url(#linearGradient4598);fill-opacity:1;fill-rule:nonzero;stroke:none"
       d="m 6.9671052,-2.2057527 c -1.1147561,0 -1.9983552,0.8835993 -1.9983552,1.99835538 l 0,10.06578972 c 0,1.1147646 0.8835991,2.0230256 1.9983552,2.0230256 l 10.0657888,0 c 1.114765,0 1.998356,-0.908261 1.998356,-2.0230256 l 0,-10.06578972 c 0,-1.11475608 -0.883591,-1.99835538 -1.998356,-1.99835538 l -10.0657888,0 z m 1.6282896,3.675987 1.7269732,0 0,6.8092104 -1.7269732,0 0,-6.8092104 z m 2.5411182,1.2582236 1.726973,0 0,4.2927632 -1.726972,0 0,-4.2927632 z m 2.541119,0 1.726974,0 0,4.2927632 -1.726974,0 0,-4.2927632 z"
       id="path4410"
       inkscape:connector-curvature="0" />
  </g>
  <g
     inkscape:groupmode="layer"
     id="g4395"
     inkscape:label="Updating1"
     style="display:none"
     transform="translate(-1,6)"
     sodipodi:insensitive="true">
    <path
       style="opacity:0.5;fill:#000000;fill-opacity:1;fill-rule:nonzero;stroke:none;display:inline"
       d="m 6.9671052,-1.4162789 c -1.1147561,0 -1.9983552,0.8835993 -1.9983552,1.99835526 l 0,10.06578964 c 0,1.114765 0.8835991,2.023026 1.9983552,2.023026 l 10.0657888,0 c 1.114765,0 1.998356,-0.908261 1.998356,-2.023026 l 0,-10.06578964 c 0,-1.11475596 -0.883591,-1.99835526 -1.998356,-1.99835526 l -10.0657888,0 z m 1.6282896,4.9342104 1.7269732,0 0,4.2927632 -1.7269732,0 0,-4.2927632 z m 2.5411182,0 1.726973,0 0,4.2927632 -1.726972,0 0,-4.2927632 z m 2.541119,0 1.726974,0 0,4.2927632 -1.726974,0 0,-4.2927632 z"
       id="path4397-1"
       inkscape:connector-curvature="0" />
    <path
       style="fill:url(#linearGradient4405);fill-opacity:1;fill-rule:nonzero;stroke:none"
       d="m 6.9671052,-2.2057527 c -1.1147561,0 -1.9983552,0.8835993 -1.9983552,1.99835538 l 0,10.06578972 c 0,1.1147646 0.8835991,2.0230256 1.9983552,2.0230256 l 10.0657888,0 c 1.114765,0 1.998356,-0.908261 1.998356,-2.0230256 l 0,-10.06578972 c 0,-1.11475608 -0.883591,-1.99835538 -1.998356,-1.99835538 l -10.0657888,0 z m 1.6282896,4.9342106 1.7269732,0 0,4.2927632 -1.7269732,0 0,-4.2927632 z m 2.5411182,0 1.726973,0 0,4.2927632 -1.726972,0 0,-4.2927632 z m 2.541119,0 1.726974,0 0,4.2927632 -1.726974,0 0,-4.2927632 z"
       id="path4397"
       inkscape:connector-curvature="0" />
  </g>
  <g
     style="display:none"
     inkscape:label="Notify"
     id="g3854"
     inkscape:groupmode="layer"
     transform="translate(-1,6)"
     sodipodi:insensitive="true">
    <path
       style="font-size:medium;font-style:normal;font-variant:normal;font-weight:normal;font-stretch:normal;text-indent:0;text-align:start;text-decoration:none;line-height:normal;letter-spacing:normal;word-spacing:normal;text-transform:none;direction:ltr;block-progression:tb;writing-mode:lr-tb;text-anchor:start;baseline-shift:baseline;opacity:0.15;color:#000000;fill:url(#linearGradient3841);fill-opacity:1;fill-rule:nonzero;stroke:none;stroke-width:1.5;marker:none;visibility:visible;display:inline;overflow:visible;enable-background:accumulate;font-family:Sans;-inkscape-font-specification:Sans"
       d="M 6.9695124,-2.670892 C 5.6162585,-2.670892 4.5,-1.5546335 4.5,-0.20137964 l 0,10.06097204 c 0,1.3532626 1.1162585,2.4695176 2.4695124,2.4695176 l 10.0609696,0 C 18.383746,12.32911 19.5,11.212855 19.5,9.8595924 l 0,-10.06097204 C 19.5,-1.5546335 18.383746,-2.670892 17.030482,-2.670892 l -10.0609696,0 z m 0,0.9146337 7.0426786,0 c 2.73e-4,1.04e-5 0.0229,0 0.0229,0 l -0.0229,0.548781 0,0.5487798 -0.0229,0 c 0,0 -0.578803,-0.00773 -1.189021,0.29725618 -0.550792,0.27527689 -1.256604,1.05597203 -1.257626,2.17225622 l 0,0.5716472 -0.571646,-0.022872 -1.006099,-0.022868 -0.434452,-0.02287 0,0.4801831 0,2.0579269 0,0.4801825 0.434452,-0.022867 1.006099,-0.022871 0.571646,-0.022868 0,0.5716463 0,4.0243944 0,1.0060907 0,0.548787 -0.548785,0 -4.0243874,0 c -0.8493198,10e-7 -1.5548782,-0.705561 -1.5548782,-1.5548777 l 0,-10.0609796 c 0,-0.8493185 0.7055599,-1.5548783 1.5548782,-1.5548783 z m 9.5121946,0 0.548775,0 c 0.849319,0 1.554889,0.7055602 1.554889,1.55487866 l 0,10.06097204 c 0,0.8493186 -0.705569,1.5548756 -1.554889,1.5548756 l -2.01219,0 -0.548775,0 0,-0.548775 0,-1.0061006 0,-4.0243867 0,-0.5487809 0.548775,0 1.006101,0 0.457314,0 0,-0.4573168 0,-2.0121956 0,-1.0060975 0,-2.01219454 0,-1.00609766 0,-0.548781 z m -2.515247,2.01219544 0.0229,0 0.0229,0 1.006101,0 0,0.54878057 0,0.54878029 c -0.604071,0.00527 -1.198538,0.5038131 -1.326243,0.7774392 -0.172485,0.3695814 -0.14253,0.5778837 -0.137192,0.6402439 l 0,0.045731 -1.097563,0.045731 c -1.46e-4,-0.00173 2.28e-4,-0.042699 0,-0.045731 0,0 -6.08e-4,-0.3147923 0,-1.0060977 3.5e-4,-0.3842568 0.05157,-0.6808088 0.228664,-0.93749956 0.177127,-0.25669093 0.416061,-0.35668533 0.525911,-0.41158533 0.38787,-0.19385121 0.754569,-0.2057926 0.754569,-0.2057926 z m -0.411584,2.58384176 0,0.045731 0.06857,0.8917685 0.0229,0.5945124 -0.571645,0 -0.06857,0 -0.548787,0 0,-0.5487809 0,-0.022867 0,-0.8917678 0,-0.022871 1.097562,-0.045731 z"
       id="path3856-5"
       inkscape:connector-curvature="0" />
    <path
       id="path3833"
       d="m 6.9695124,-1.4239417 c -1.1147563,0 -2.0121956,0.8974388 -2.0121956,2.01219484 l 0,10.06097386 c 0,1.114754 0.8974393,2.012191 2.0121956,2.012191 l 10.0609696,0 c 1.114766,0 2.012203,-0.897437 2.012203,-2.012191 l 0,-10.06097386 c 0,-1.11475604 -0.897437,-2.01219484 -2.012203,-2.01219484 l -10.0609696,0 z m 7.0426786,2.01219484 2.012202,0 0,2.01219506 c 0,0 -0.783902,-0.00198 -1.006101,0 -1.077487,0.00941 -1.006101,1.0060978 -1.006101,1.0060978 l 2.012202,0 0,2.0121954 -2.012202,0 0,5.0304856 -2.012191,0 0,-5.0304856 -2.012195,0.031436 0,-2.0750766 L 12,3.6065452 c 0,0 -6.1e-4,-0.3144027 0,-1.0060978 0.0019,-2.01396608 2.012191,-2.0121949 2.012191,-2.0121949 z"
       style="opacity:0.5;fill:#000000;fill-opacity:1;fill-rule:nonzero;stroke:none;display:inline"
       inkscape:connector-curvature="0" />
    <path
       inkscape:connector-curvature="0"
       id="path3856"
       d="m 6.9695124,-2.2135752 c -1.1147563,0 -2.0121956,0.8974394 -2.0121956,2.01219556 l 0,10.06097204 c 0,1.1147646 0.8974393,2.0122016 2.0121956,2.0122016 l 10.0609696,0 c 1.114766,0 2.012203,-0.897437 2.012203,-2.0122016 l 0,-10.06097215 c 0,-1.11475605 -0.897437,-2.01219545 -2.012203,-2.01219545 l -10.0609696,0 z m 7.0426786,2.01219556 2.012202,0 0,2.01219454 c 0,0 -0.783902,-0.00198 -1.006101,0 -1.077487,0.00941 -1.006101,1.0060975 -1.006101,1.0060975 l 2.012202,0 0,2.0121956 -2.012202,0 0,5.0304844 -2.012191,0 0,-5.0304844 -2.012195,0.031436 0,-2.0750766 L 12,2.8169114 c 0,0 -6.1e-4,-0.3144027 0,-1.0060977 0.0018,-2.01396602 2.012191,-2.01219441 2.012191,-2.01219441 z"
       style="fill:url(#linearGradient4003);fill-opacity:1;fill-rule:nonzero;stroke:none" />
  </g>
  <g
     inkscape:groupmode="layer"
     id="g3927"
     inkscape:label="Error"
     style="display:none"
     transform="translate(-1,6)"
     sodipodi:insensitive="true">
    <path
       style="font-size:medium;font-style:normal;font-variant:normal;font-weight:normal;font-stretch:normal;text-indent:0;text-align:start;text-decoration:none;line-height:normal;letter-spacing:normal;word-spacing:normal;text-transform:none;direction:ltr;block-progression:tb;writing-mode:lr-tb;text-anchor:start;baseline-shift:baseline;opacity:0.15;color:#000000;fill:url(#linearGradient3923);fill-opacity:1;fill-rule:nonzero;stroke:none;stroke-width:2;marker:none;visibility:visible;display:inline;overflow:visible;enable-background:accumulate;font-family:Sans;-inkscape-font-specification:Sans"
       d="M 6.9695124,-2.670892 C 5.6162585,-2.670892 4.5,-1.5546337 4.5,-0.20137964 l 0,10.06097204 c 0,1.3532626 1.1162584,2.4695176 2.4695124,2.4695176 l 10.0609696,0 C 18.383746,12.32911 19.5,11.212855 19.5,9.8595924 l 0,-10.06097204 C 19.5,-1.5546339 18.383746,-2.670892 17.030482,-2.670892 l -10.0609696,0 z m 0,0.9146337 7.0426786,0 c 2.73e-4,1.04e-5 0.0229,0 0.0229,0 l -0.0229,0.548781 0,0.5487798 -0.0229,0 c 0,0 -0.578802,-0.00773 -1.189021,0.29725618 -0.550792,0.27527732 -1.256603,1.05597193 -1.257626,2.17225622 l 0,0.5716472 L 10.971,2.3595901 9.964901,2.3367241 9.53045,2.3138541 l 0,0.4801831 0,2.0579269 0,0.4801826 0.434451,-0.022868 1.006099,-0.022871 0.571647,-0.022869 0,0.5716463 0,4.0243933 0,1.0060917 0,0.548786 -0.548786,0 -4.0243867,0 c -0.8493151,4e-6 -1.5548737,-0.705558 -1.5548737,-1.5548756 l 0,-10.06097806 c 0,-0.84931824 0.70556,-1.55487824 1.5548782,-1.55487824 z m 9.5121946,0 0.548775,0 c 0.849319,0 1.554889,0.7055599 1.554889,1.55487866 l 0,10.06097204 c 0,0.8493186 -0.705569,1.5548756 -1.554889,1.5548756 l -2.01219,0 -0.548775,0 0,-0.548775 0,-1.0061006 0,-4.0243867 0,-0.5487809 0.548775,0 1.006101,0 0.457314,0 0,-0.4573168 0,-2.0121956 0,-1.0060975 0,-2.01219454 0,-1.00609766 0,-0.548781 z m -2.515247,2.01219544 0.0229,0 0.0229,0 1.006101,0 0,0.54878057 0,0.54878029 C 14.41429,1.358769 13.819823,1.8573111 13.692118,2.1309372 13.519633,2.5005186 13.54951,2.7088209 13.554926,2.7711811 l 0,0.045731 -1.097563,0.045731 c -1.46e-4,-0.00173 2.28e-4,-0.042699 0,-0.045731 0,0 -6.08e-4,-0.3147923 0,-1.0060977 3.5e-4,-0.3842568 0.05157,-0.6808088 0.228664,-0.93749956 0.177128,-0.25669136 0.416062,-0.35668597 0.525911,-0.41158586 0.387871,-0.19385272 0.754569,-0.20579261 0.754569,-0.20579261 z m -0.411584,2.58384176 0,0.045731 0.06857,0.8917685 0.0229,0.5945124 -0.571645,0 -0.06857,0 -0.548787,0 0,-0.5487809 0,-0.022867 0,-0.8917678 0,-0.022871 1.097562,-0.045731 z"
       id="path3929"
       inkscape:connector-curvature="0" />
    <path
       id="path3833-3"
       d="m 6.9695124,-1.4239476 c -1.1147563,0 -2.0121956,0.8974395 -2.0121956,2.01219581 l 0,10.06097879 c 0,1.114754 0.8974393,2.012191 2.0121956,2.012191 l 10.0609696,0 c 1.114766,0 2.012203,-0.897437 2.012203,-2.012191 l 0,-10.06097879 c 0,-1.11475631 -0.897437,-2.01219581 -2.012203,-2.01219581 l -10.0609696,0 z m 7.0426786,2.01219581 2.012202,0 0,2.01219539 c 0,0 -0.783902,-0.00198 -1.006101,0 -1.077487,0.00941 -1.006101,1.0060973 -1.006101,1.0060973 l 2.012202,0 0,2.0121947 -2.012202,0 0,5.0304914 -2.012191,0 0,-5.0304913 -2.012195,0.031436 0,-2.0750756 L 12,3.6065392 c 0,0 -6.09e-4,-0.3144027 0,-1.0060978 0.0019,-2.01396672 2.012191,-2.01219522 2.012191,-2.01219522 z"
       style="opacity:0.5;fill:#000000;fill-opacity:1;fill-rule:nonzero;stroke:none;display:inline"
       inkscape:connector-curvature="0" />
    <path
       style="fill:url(#linearGradient3866);fill-opacity:1;fill-rule:nonzero;stroke:none"
       d="m 6.9695124,-2.2135752 c -1.1147563,0 -2.0121956,0.8974394 -2.0121956,2.01219556 l 0,10.06097204 c 0,1.1147646 0.8974393,2.0122016 2.0121956,2.0122016 l 10.0609696,0 c 1.114766,0 2.012203,-0.897437 2.012203,-2.0122016 l 0,-10.06097215 c 0,-1.11475605 -0.897437,-2.01219545 -2.012203,-2.01219545 l -10.0609696,0 z m 7.0426786,2.01219556 2.012202,0 0,2.01219454 c 0,0 -0.783902,-0.00198 -1.006101,0 -1.077487,0.00941 -1.006101,1.0060975 -1.006101,1.0060975 l 2.012202,0 0,2.0121956 -2.012202,0 0,5.0304844 -2.012191,0 0,-5.0304844 -2.012195,0.031436 0,-2.0750766 L 12,2.8169114 c 0,0 -6.1e-4,-0.3144027 0,-1.0060977 0.0018,-2.01396602 2.012191,-2.01219441 2.012191,-2.01219441 z"
       id="path3931"
       inkscape:connector-curvature="0" />
  </g>
</svg>
