<?xml version="1.0" encoding="UTF-8" standalone="no"?>
<!-- Created with Inkscape (http://www.inkscape.org/) -->

<svg
   xmlns:dc="http://purl.org/dc/elements/1.1/"
   xmlns:cc="http://creativecommons.org/ns#"
   xmlns:rdf="http://www.w3.org/1999/02/22-rdf-syntax-ns#"
   xmlns:svg="http://www.w3.org/2000/svg"
   xmlns="http://www.w3.org/2000/svg"
   xmlns:xlink="http://www.w3.org/1999/xlink"
   xmlns:sodipodi="http://sodipodi.sourceforge.net/DTD/sodipodi-0.dtd"
   xmlns:inkscape="http://www.inkscape.org/namespaces/inkscape"
   id="svg2"
   version="1.1"
   inkscape:version="0.48.3.1 r9886"
   width="22"
   height="22"
   sodipodi:docname="icon.svg"
   inkscape:export-filename="/home/lean/Projects/fbnotify/icons/22/icon-error.png"
   inkscape:export-xdpi="90"
   inkscape:export-ydpi="90">
  <metadata
     id="metadata8">
    <rdf:RDF>
      <cc:Work
         rdf:about="">
        <dc:format>image/svg+xml</dc:format>
        <dc:type
           rdf:resource="http://purl.org/dc/dcmitype/StillImage" />
        <dc:title></dc:title>
      </cc:Work>
    </rdf:RDF>
  </metadata>
  <defs
     id="defs6">
    <linearGradient
       id="linearGradient3917">
      <stop
         style="stop-color:#d24949;stop-opacity:1;"
         offset="0"
         id="stop3919" />
      <stop
         id="stop3925"
         offset="0.69999999"
         style="stop-color:#b43434;stop-opacity:1;" />
      <stop
         style="stop-color:#991b1b;stop-opacity:1;"
         offset="1"
         id="stop3921" />
    </linearGradient>
    <linearGradient
       id="linearGradient3763">
      <stop
         style="stop-color:#ffffff;stop-opacity:1;"
         offset="0"
         id="stop3765" />
      <stop
         style="stop-color:#e6e6e6;stop-opacity:1;"
         offset="1"
         id="stop3767" />
    </linearGradient>
    <linearGradient
       inkscape:collect="always"
       xlink:href="#linearGradient3763-0"
       id="linearGradient3769-9"
       x1="1"
       y1="8"
       x2="15"
       y2="8"
       gradientUnits="userSpaceOnUse"
       gradientTransform="translate(0,-16)" />
    <linearGradient
       id="linearGradient3763-0">
      <stop
         style="stop-color:#ff5959;stop-opacity:1;"
         offset="0"
         id="stop3765-9" />
      <stop
         id="stop3858"
         offset="0.69999999"
         style="stop-color:#de4040;stop-opacity:1;" />
      <stop
         style="stop-color:#bd2121;stop-opacity:1;"
         offset="1"
         id="stop3767-9" />
    </linearGradient>
    <linearGradient
       inkscape:collect="always"
       xlink:href="#linearGradient3763"
       id="linearGradient3806"
       gradientUnits="userSpaceOnUse"
       gradientTransform="matrix(0,1.375,-1.375,0,23,-5.9999999)"
       x1="1"
       y1="8"
       x2="15"
       y2="8" />
    <linearGradient
       inkscape:collect="always"
       xlink:href="#linearGradient3763-0"
       id="linearGradient3866"
       x1="8.125"
       y1="0.9375"
       x2="8.125"
       y2="15.008886"
       gradientUnits="userSpaceOnUse"
       gradientTransform="matrix(1.375,0,0,1.375,1,-6)" />
    <linearGradient
       inkscape:collect="always"
       xlink:href="#linearGradient3763-0-2"
       id="linearGradient3866-8"
       x1="8.125"
       y1="0.9375"
       x2="8.125"
       y2="15.008886"
       gradientUnits="userSpaceOnUse" />
    <linearGradient
       id="linearGradient3763-0-2">
      <stop
         style="stop-color:#59caff;stop-opacity:1;"
         offset="0"
         id="stop3765-9-8" />
      <stop
         id="stop3858-6"
         offset="0.69999999"
         style="stop-color:#408ade;stop-opacity:1;" />
      <stop
         style="stop-color:#216bbd;stop-opacity:1;"
         offset="1"
         id="stop3767-9-9" />
    </linearGradient>
    <linearGradient
       inkscape:collect="always"
       xlink:href="#linearGradient3917"
       id="linearGradient3923"
       x1="8.026288"
       y1="0.02628831"
       x2="8.026288"
       y2="16.008997"
       gradientUnits="userSpaceOnUse"
       gradientTransform="scale(1.375,1.375)" />
    <linearGradient
       inkscape:collect="always"
       xlink:href="#linearGradient3763-0-2"
       id="linearGradient4003"
       gradientUnits="userSpaceOnUse"
       x1="8.125"
       y1="0.9375"
       x2="8.125"
       y2="15.008886"
       gradientTransform="matrix(1.375,0,0,1.375,1,-6)" />
    <linearGradient
       inkscape:collect="always"
       xlink:href="#linearGradient3763-0-2"
       id="linearGradient4005"
       gradientUnits="userSpaceOnUse"
       x1="8.026288"
       y1="0.02628831"
       x2="8.026288"
       y2="16.008997"
       gradientTransform="matrix(1.375,0,0,1.375,1,-6)" />
    <linearGradient
       inkscape:collect="always"
       xlink:href="#linearGradient3763-0-2-7"
       id="linearGradient4005-1"
       gradientUnits="userSpaceOnUse"
       x1="8.026288"
       y1="0.02628831"
       x2="8.026288"
       y2="16.008997"
       gradientTransform="matrix(1.375,0,0,1.375,1,-6)" />
    <linearGradient
       id="linearGradient3763-0-2-7">
      <stop
         style="stop-color:#59caff;stop-opacity:1;"
         offset="0"
         id="stop3765-9-8-3" />
      <stop
         id="stop3858-6-6"
         offset="0.69999999"
         style="stop-color:#408ade;stop-opacity:1;" />
      <stop
         style="stop-color:#216bbd;stop-opacity:1;"
         offset="1"
         id="stop3767-9-9-4" />
    </linearGradient>
    <linearGradient
       y2="16.008997"
       x2="8.026288"
       y1="0.02628831"
       x1="8.026288"
       gradientTransform="matrix(1.375,0,0,1.375,11.375,-15.3125)"
       gradientUnits="userSpaceOnUse"
       id="linearGradient3814"
       xlink:href="#linearGradient3763-0-2-7"
       inkscape:collect="always" />
    <linearGradient
       inkscape:collect="always"
       xlink:href="#linearGradient3763-0-2"
       id="linearGradient3841"
       gradientUnits="userSpaceOnUse"
       gradientTransform="scale(1.375,1.375)"
       x1="8.026288"
       y1="0.02628831"
       x2="8.026288"
       y2="16.008997" />
    <linearGradient
       inkscape:collect="always"
       xlink:href="#linearGradient3917-9"
       id="linearGradient3923-5"
       x1="8.026288"
       y1="0.02628831"
       x2="8.026288"
       y2="16.008997"
       gradientUnits="userSpaceOnUse"
       gradientTransform="matrix(1.375,0,0,1.375,1,-6)" />
    <linearGradient
       id="linearGradient3917-9">
      <stop
         style="stop-color:#d24949;stop-opacity:1;"
         offset="0"
         id="stop3919-7" />
      <stop
         id="stop3925-5"
         offset="0.69999999"
         style="stop-color:#b43434;stop-opacity:1;" />
      <stop
         style="stop-color:#991b1b;stop-opacity:1;"
         offset="1"
         id="stop3921-1" />
    </linearGradient>
  </defs>
  <sodipodi:namedview
     pagecolor="#ffffff"
     bordercolor="#666666"
     borderopacity="1"
     objecttolerance="10"
     gridtolerance="10"
     guidetolerance="10"
     inkscape:pageopacity="0"
     inkscape:pageshadow="2"
     inkscape:window-width="1024"
     inkscape:window-height="744"
     id="namedview4"
     showgrid="false"
     inkscape:zoom="16"
     inkscape:cx="10.910664"
     inkscape:cy="9.5942119"
     inkscape:window-x="0"
     inkscape:window-y="0"
     inkscape:window-maximized="1"
     inkscape:current-layer="g3927"
     fit-margin-top="0"
     fit-margin-left="0"
     fit-margin-right="0"
     fit-margin-bottom="0" />
  <g
     inkscape:groupmode="layer"
     id="layer1"
     inkscape:label="Idle"
     style="display:inline"
     transform="translate(-1,6)"
     sodipodi:insensitive="true">
    <path
       id="path3833-5"
       d="m 5.125,-3.9380004 c -1.5235,0 -2.75,1.2265 -2.75,2.75 l 0,13.7500004 c 0,1.5235 1.2265,2.75 2.75,2.75 l 13.75,0 c 1.5235,0 2.75,-1.2265 2.75,-2.75 l 0,-13.7500004 c 0,-1.5235 -1.2265,-2.75 -2.75,-2.75 l -13.75,0 z m 9.625,2.75 2.75,0 0,2.75 c 0,0 -1.071334,-0.00265 -1.375,0 -1.472561,0.012856 -1.375,1.375 -1.375,1.375 l 2.75,0 0,2.7500004 -2.75,0 0,6.875 -2.749999,0 0,-6.875 L 9.25,5.729969 l 0,-2.8359379 2.750001,0.042969 c 0,0 -8.32e-4,-0.4296834 0,-1.375 C 12.002476,-1.1904214 14.75,-1.1880004 14.75,-1.1880004 z"
       style="opacity:0.5;fill:#000000;fill-opacity:1;fill-rule:nonzero;stroke:none;display:inline"
       inkscape:connector-curvature="0" />
    <path
       style="fill:url(#linearGradient3806);fill-opacity:1;fill-rule:nonzero;stroke:none"
       d="m 5.125,-4.625 c -1.5235,0 -2.75,1.2265 -2.75,2.75 l 0,13.75 c 0,1.5235 1.2265,2.75 2.75,2.75 l 13.75,0 c 1.5235,0 2.75,-1.2265 2.75,-2.75 l 0,-13.75 c 0,-1.5235 -1.2265,-2.75 -2.75,-2.75 l -13.75,0 z m 9.625,2.75 2.75,0 0,2.75 c 0,0 -1.071334,-0.002654 -1.375,0 C 14.652438,0.88785625 14.75,2.25 14.75,2.25 l 2.75,0 0,2.75 -2.75,0 0,6.875 -2.75,0 L 12,5 9.25,5.0429687 9.25,2.2070313 12,2.25 c 0,0 -8.32e-4,-0.4296834 0,-1.375 0.0024,-2.752421 2.75,-2.75 2.75,-2.75 z"
       id="rect2993"
       inkscape:connector-curvature="0" />
  </g>
  <g
     style="display:none"
     inkscape:label="Notify"
     id="g3854"
     inkscape:groupmode="layer"
     transform="translate(-1,6)"
     sodipodi:insensitive="true">
    <path
       id="path3833"
       d="m 5.125,-3.9379996 c -1.5235,0 -2.75,1.2265 -2.75,2.75 l 0,13.7499996 c 0,1.5235 1.2265,2.75 2.75,2.75 l 13.75,0 c 1.5235,0 2.75,-1.2265 2.75,-2.75 l 0,-13.7499996 c 0,-1.5235 -1.2265,-2.75 -2.75,-2.75 l -13.75,0 z m 9.625,2.75 2.75,0 0,2.75 c 0,0 -1.071334,-0.00265 -1.375,0 -1.472562,0.012856 -1.375,1.375 -1.375,1.375 l 2.75,0 0,2.75 -2.75,0 0,6.8749996 -2.75,0 0,-6.8749996 -2.7500001,0.042969 0,-2.8359375 L 12,2.9370004 c 0,0 -8.32e-4,-0.4296834 0,-1.375 0.0025,-2.7524209 2.75,-2.75 2.75,-2.75 z"
       style="opacity:0.5;fill:#000000;fill-opacity:1;fill-rule:nonzero;stroke:none;display:inline"
       inkscape:connector-curvature="0" />
    <path
       inkscape:connector-curvature="0"
       id="path3856"
       d="m 5.125,-4.625 c -1.5235,0 -2.75,1.2265 -2.75,2.75 l 0,13.75 c 0,1.5235 1.2265,2.75 2.75,2.75 l 13.75,0 c 1.5235,0 2.75,-1.2265 2.75,-2.75 l 0,-13.75 c 0,-1.5235 -1.2265,-2.75 -2.75,-2.75 l -13.75,0 z m 9.625,2.75 2.75,0 0,2.75 c 0,0 -1.071334,-0.002654 -1.375,0 C 14.652438,0.88785625 14.75,2.25 14.75,2.25 l 2.75,0 0,2.75 -2.75,0 0,6.875 -2.75,0 L 12,5 9.25,5.0429687 9.25,2.2070313 12,2.25 c 0,0 -8.32e-4,-0.4296834 0,-1.375 0.0024,-2.752421 2.75,-2.75 2.75,-2.75 z"
       style="fill:url(#linearGradient4003);fill-opacity:1;fill-rule:nonzero;stroke:none" />
    <path
       style="font-size:medium;font-style:normal;font-variant:normal;font-weight:normal;font-stretch:normal;text-indent:0;text-align:start;text-decoration:none;line-height:normal;letter-spacing:normal;word-spacing:normal;text-transform:none;direction:ltr;block-progression:tb;writing-mode:lr-tb;text-anchor:start;baseline-shift:baseline;opacity:0.15;color:#000000;fill:url(#linearGradient3841);fill-opacity:1;fill-rule:nonzero;stroke:none;stroke-width:1.5;marker:none;visibility:visible;display:inline;overflow:visible;enable-background:accumulate;font-family:Sans;-inkscape-font-specification:Sans"
       d="M 4.125,0.75 C 2.275553,0.75 0.75,2.275553 0.75,4.125 l 0,13.75 c 0,1.849448 1.525553,3.375 3.375,3.375 l 13.75,0 c 1.849448,0 3.375,-1.525552 3.375,-3.375 l 0,-13.75 C 21.25,2.275553 19.724448,0.75 17.875,0.75 l -13.75,0 z m 0,1.25 9.625,0 c 3.6e-4,1.4e-5 0.03125,0 0.03125,0 L 13.75,2.75 l 0,0.75 -0.03125,0 c 0,0 -0.791035,-0.010557 -1.625,0.40625 C 11.341003,4.282461 10.3764,5.3494114 10.375,6.875 l 0,0.78125 L 9.59375,7.625 8.21875,7.59375 7.625,7.5625 l 0,0.65625 0,2.8125 0,0.65625 0.59375,-0.03125 1.375,-0.03125 0.78125,-0.03125 0,0.78125 0,5.5 0,1.375 0,0.75 -0.75,0 -5.5,0 C 2.964263,20.000004 2,19.035734 2,17.875 L 2,4.125 C 2,2.964265 2.964265,2 4.125,2 z m 13,0 0.75,0 C 19.035734,2 20,2.964265 20,4.125 l 0,13.75 C 20,19.035735 19.035735,20 17.875,20 l -2.75,0 -0.75,0 0,-0.75 0,-1.375 0,-5.5 0,-0.75 0.75,0 1.375,0 0.625,0 0,-0.625 0,-2.75 0,-1.375 0,-2.75 0,-1.375 0,-0.75 z m -3.4375,2.75 0.03125,0 0.03125,0 1.375,0 0,0.75 0,0.75 c -0.825537,0.00721 -1.637973,0.6885439 -1.8125,1.0625 -0.23573,0.505095 -0.1948,0.789775 -0.1875,0.875 l 0,0.0625 -1.5,0.0625 c -2.01e-4,-0.00233 3.05e-4,-0.05836 0,-0.0625 0,0 -8.32e-4,-0.4302158 0,-1.375 4.72e-4,-0.5251517 0.07042,-0.9304393 0.3125,-1.28125 0.242081,-0.350811 0.568625,-0.48747 0.71875,-0.5625 C 13.186342,4.76632 13.6875,4.75 13.6875,4.75 z m -0.5625,3.53125 0,0.0625 0.09375,1.21875 0.03125,0.8125 -0.78125,0 -0.09375,0 -0.75,0 0,-0.75 0,-0.03125 0,-1.21875 0,-0.03125 1.5,-0.0625 z"
       transform="translate(1,-6)"
       id="path3856-5"
       inkscape:connector-curvature="0" />
  </g>
  <g
     inkscape:groupmode="layer"
     id="g3927"
     inkscape:label="Error"
     style="display:none"
     transform="translate(-1,6)"
     sodipodi:insensitive="true">
    <path
       style="font-size:medium;font-style:normal;font-variant:normal;font-weight:normal;font-stretch:normal;text-indent:0;text-align:start;text-decoration:none;line-height:normal;letter-spacing:normal;word-spacing:normal;text-transform:none;direction:ltr;block-progression:tb;writing-mode:lr-tb;text-anchor:start;baseline-shift:baseline;opacity:0.15;color:#000000;fill:url(#linearGradient3923);fill-opacity:1;fill-rule:nonzero;stroke:none;stroke-width:2;marker:none;visibility:visible;display:inline;overflow:visible;enable-background:accumulate;font-family:Sans;-inkscape-font-specification:Sans"
       d="M 4.125,0.75 C 2.275553,0.75 0.75,2.2755527 0.75,4.125 l 0,13.75 c 0,1.849448 1.5255528,3.375 3.375,3.375 l 13.75,0 c 1.849448,0 3.375,-1.525552 3.375,-3.375 l 0,-13.75 C 21.25,2.2755524 19.724448,0.75 17.875,0.75 l -13.75,0 z m 0,1.25 9.625,0 c 3.6e-4,1.36e-5 0.03125,0 0.03125,0 L 13.75,2.75 l 0,0.75 -0.03125,0 c 0,0 -0.791034,-0.010554 -1.625,0.40625 C 11.341003,4.2824615 10.3764,5.349411 10.375,6.875 l 0,0.78125 L 9.59375,7.625 8.21875,7.59375 7.625,7.5625 l 0,0.65625 0,2.8125 0,0.65625 0.59375,-0.03125 1.375,-0.03125 0.78125,-0.03125 0,0.78125 0,5.5 0,1.375 0,0.75 -0.75,0 -5.5,0 C 2.9642631,20.000004 2,19.035734 2,17.875 L 2,4.125 C 2,2.9642653 2.964265,2 4.125,2 z m 13,0 0.75,0 C 19.035734,2 20,2.9642647 20,4.125 l 0,13.75 C 20,19.035735 19.035735,20 17.875,20 l -2.75,0 -0.75,0 0,-0.75 0,-1.375 0,-5.5 0,-0.75 0.75,0 1.375,0 0.625,0 0,-0.625 0,-2.75 0,-1.375 0,-2.75 0,-1.375 0,-0.75 z m -3.4375,2.75 0.03125,0 0.03125,0 1.375,0 0,0.75 0,0.75 c -0.825537,0.00721 -1.637973,0.6885439 -1.8125,1.0625 -0.23573,0.505095 -0.1949,0.789775 -0.1875,0.875 l 0,0.0625 -1.5,0.0625 c -2.01e-4,-0.00233 3.05e-4,-0.05836 0,-0.0625 0,0 -8.32e-4,-0.4302158 0,-1.375 4.72e-4,-0.5251517 0.07042,-0.9304393 0.3125,-1.28125 0.242081,-0.3508107 0.568625,-0.4874701 0.71875,-0.5625 C 13.186342,4.766318 13.6875,4.75 13.6875,4.75 z m -0.5625,3.53125 0,0.0625 0.09375,1.21875 0.03125,0.8125 -0.78125,0 -0.09375,0 -0.75,0 0,-0.75 0,-0.03125 0,-1.21875 0,-0.03125 1.5,-0.0625 z"
       transform="translate(1,-6)"
       id="path3929"
       inkscape:connector-curvature="0" />
    <path
       id="path3833-3"
       d="m 5.125,-3.9374995 c -1.5235,0 -2.75,1.2265 -2.75,2.7500001 l 0,13.7499994 c 0,1.5235 1.2265,2.75 2.75,2.75 l 13.75,0 c 1.5235,0 2.75,-1.2265 2.75,-2.75 l 0,-13.7499994 c 0,-1.5235001 -1.2265,-2.7500001 -2.75,-2.7500001 l -13.75,0 z m 9.625,2.7500001 2.75,0 0,2.7499999 c 0,0 -1.071334,-0.00265 -1.375,0 -1.472562,0.012856 -1.375,1.375 -1.375,1.375 l 2.75,0 0,2.75 -2.75,0 0,6.8749995 -2.75,0 0,-6.8749994 -2.7500004,0.042969 0,-2.8359375 L 12,2.9375006 c 0,0 -8.31e-4,-0.4296834 0,-1.375 0.0025,-2.752421 2.75,-2.75 2.75,-2.75 z"
       style="opacity:0.5;fill:#000000;fill-opacity:1;fill-rule:nonzero;stroke:none;display:inline"
       inkscape:connector-curvature="0" />
    <path
       style="fill:url(#linearGradient3866);fill-opacity:1;fill-rule:nonzero;stroke:none"
       d="m 5.125,-4.625 c -1.5235,0 -2.75,1.2265 -2.75,2.75 l 0,13.75 c 0,1.5235 1.2265,2.75 2.75,2.75 l 13.75,0 c 1.5235,0 2.75,-1.2265 2.75,-2.75 l 0,-13.75 c 0,-1.5235 -1.2265,-2.75 -2.75,-2.75 l -13.75,0 z m 9.625,2.75 2.75,0 0,2.75 c 0,0 -1.071334,-0.002654 -1.375,0 C 14.652438,0.88785625 14.75,2.25 14.75,2.25 l 2.75,0 0,2.75 -2.75,0 0,6.875 -2.75,0 L 12,5 9.25,5.0429687 9.25,2.2070313 12,2.25 c 0,0 -8.32e-4,-0.4296834 0,-1.375 0.0024,-2.752421 2.75,-2.75 2.75,-2.75 z"
       id="path3931"
       inkscape:connector-curvature="0" />
  </g>
</svg>
