<?xml version="1.0" encoding="UTF-8" standalone="no"?>
<!-- Created with Inkscape (http://www.inkscape.org/) -->

<svg
   xmlns:dc="http://purl.org/dc/elements/1.1/"
   xmlns:cc="http://creativecommons.org/ns#"
   xmlns:rdf="http://www.w3.org/1999/02/22-rdf-syntax-ns#"
   xmlns:svg="http://www.w3.org/2000/svg"
   xmlns="http://www.w3.org/2000/svg"
   xmlns:xlink="http://www.w3.org/1999/xlink"
   xmlns:sodipodi="http://sodipodi.sourceforge.net/DTD/sodipodi-0.dtd"
   xmlns:inkscape="http://www.inkscape.org/namespaces/inkscape"
   id="svg2"
   version="1.1"
   inkscape:version="0.48.3.1 r9886"
   width="16"
   height="16"
   sodipodi:docname="icon.svg">
  <metadata
     id="metadata8">
    <rdf:RDF>
      <cc:Work
         rdf:about="">
        <dc:format>image/svg+xml</dc:format>
        <dc:type
           rdf:resource="http://purl.org/dc/dcmitype/StillImage" />
        <dc:title></dc:title>
      </cc:Work>
    </rdf:RDF>
  </metadata>
  <defs
     id="defs6">
    <linearGradient
       id="linearGradient3917">
      <stop
         style="stop-color:#d24949;stop-opacity:1;"
         offset="0"
         id="stop3919" />
      <stop
         id="stop3925"
         offset="0.69999999"
         style="stop-color:#b43434;stop-opacity:1;" />
      <stop
         style="stop-color:#991b1b;stop-opacity:1;"
         offset="1"
         id="stop3921" />
    </linearGradient>
    <linearGradient
       id="linearGradient3763">
      <stop
         style="stop-color:#ffffff;stop-opacity:1;"
         offset="0"
         id="stop3765" />
      <stop
         style="stop-color:#e6e6e6;stop-opacity:1;"
         offset="1"
         id="stop3767" />
    </linearGradient>
    <linearGradient
       inkscape:collect="always"
       xlink:href="#linearGradient3763-0"
       id="linearGradient3769-9"
       x1="1"
       y1="8"
       x2="15"
       y2="8"
       gradientUnits="userSpaceOnUse"
       gradientTransform="translate(0,-16)" />
    <linearGradient
       id="linearGradient3763-0">
      <stop
         style="stop-color:#ff5959;stop-opacity:1;"
         offset="0"
         id="stop3765-9" />
      <stop
         id="stop3858"
         offset="0.69999999"
         style="stop-color:#de4040;stop-opacity:1;" />
      <stop
         style="stop-color:#bd2121;stop-opacity:1;"
         offset="1"
         id="stop3767-9" />
    </linearGradient>
    <linearGradient
       inkscape:collect="always"
       xlink:href="#linearGradient3763"
       id="linearGradient3806"
       gradientUnits="userSpaceOnUse"
       gradientTransform="matrix(0,1,-1,0,16,5.9309082e-8)"
       x1="1"
       y1="8"
       x2="15"
       y2="8" />
    <linearGradient
       inkscape:collect="always"
       xlink:href="#linearGradient3763-0"
       id="linearGradient3866"
       x1="8.125"
       y1="0.9375"
       x2="8.125"
       y2="15.008886"
       gradientUnits="userSpaceOnUse" />
    <linearGradient
       inkscape:collect="always"
       xlink:href="#linearGradient3763-0-2"
       id="linearGradient3866-8"
       x1="8.125"
       y1="0.9375"
       x2="8.125"
       y2="15.008886"
       gradientUnits="userSpaceOnUse" />
    <linearGradient
       id="linearGradient3763-0-2">
      <stop
         style="stop-color:#59caff;stop-opacity:1;"
         offset="0"
         id="stop3765-9-8" />
      <stop
         id="stop3858-6"
         offset="0.69999999"
         style="stop-color:#408ade;stop-opacity:1;" />
      <stop
         style="stop-color:#216bbd;stop-opacity:1;"
         offset="1"
         id="stop3767-9-9" />
    </linearGradient>
    <linearGradient
       inkscape:collect="always"
       xlink:href="#linearGradient3917"
       id="linearGradient3923"
       x1="8.026288"
       y1="0.02628831"
       x2="8.026288"
       y2="16.008997"
       gradientUnits="userSpaceOnUse" />
    <linearGradient
       inkscape:collect="always"
       xlink:href="#linearGradient3763-0-2"
       id="linearGradient4003"
       gradientUnits="userSpaceOnUse"
       x1="8.125"
       y1="0.9375"
       x2="8.125"
       y2="15.008886" />
    <linearGradient
       inkscape:collect="always"
       xlink:href="#linearGradient3763-0-2"
       id="linearGradient4005"
       gradientUnits="userSpaceOnUse"
       x1="8.026288"
       y1="0.02628831"
       x2="8.026288"
       y2="16.008997" />
  </defs>
  <sodipodi:namedview
     pagecolor="#ffffff"
     bordercolor="#666666"
     borderopacity="1"
     objecttolerance="10"
     gridtolerance="10"
     guidetolerance="10"
     inkscape:pageopacity="0"
     inkscape:pageshadow="2"
     inkscape:window-width="1024"
     inkscape:window-height="744"
     id="namedview4"
     showgrid="false"
     inkscape:zoom="22.627417"
     inkscape:cx="4.3412574"
     inkscape:cy="5.2889849"
     inkscape:window-x="0"
     inkscape:window-y="0"
     inkscape:window-maximized="1"
     inkscape:current-layer="g3854" />
  <g
     inkscape:groupmode="layer"
     id="layer1"
     inkscape:label="Idle"
     style="display:inline"
     sodipodi:insensitive="true">
    <path
       id="path3833-5"
       d="m 3,1.9999997 c -1.108,0 -2,0.892 -2,2 L 1,14 c 0,1.108 0.892,2 2,2 l 10,0 c 1.108,0 2,-0.892 2,-2 L 15,3.9999997 c 0,-1.108 -0.892,-2 -2,-2 l -10,0 z m 7,2 2,0 0,2 c 0,0 -0.779152,-0.00193 -1,0 -1.0709536,0.00935 -1,1 -1,1 l 2,0 L 12,9 l -2,0 0,5 -1.9999996,0 0,-5 L 6,9.03125 6,6.9687497 l 2.0000004,0.03125 c 0,0 -6.05e-4,-0.312497 0,-1 0.0018,-2.0017607 1.9999996,-2 1.9999996,-2 z"
       style="opacity:0.5;fill:#000000;fill-opacity:1;fill-rule:nonzero;stroke:none;display:inline"
       inkscape:connector-curvature="0" />
    <path
       style="fill:url(#linearGradient3806);fill-opacity:1;fill-rule:nonzero;stroke:none"
       d="M 3,1 C 1.892,1 1,1.892 1,3 l 0,10 c 0,1.108 0.892,2 2,2 l 10,0 c 1.108,0 2,-0.892 2,-2 L 15,3 C 15,1.892 14.108,1 13,1 L 3,1 z m 7,2 2,0 0,2 C 12,5 11.220848,4.99807 11,5 9.929046,5.00935 10,6 10,6 l 2,0 0,2 -2,0 0,5 L 8,13 8,8 6,8.03125 6,5.96875 8,6 C 8,6 7.9993952,5.687503 8,5 8.0017609,2.9982393 10,3 10,3 z"
       id="rect2993"
       inkscape:connector-curvature="0" />
  </g>
  <g
     style="display:none"
     inkscape:label="Notify"
     id="g3854"
     inkscape:groupmode="layer"
     sodipodi:insensitive="true">
    <path
       style="font-size:medium;font-style:normal;font-variant:normal;font-weight:normal;font-stretch:normal;text-indent:0;text-align:start;text-decoration:none;line-height:normal;letter-spacing:normal;word-spacing:normal;text-transform:none;direction:ltr;block-progression:tb;writing-mode:lr-tb;text-anchor:start;baseline-shift:baseline;opacity:0.15;color:#000000;fill:url(#linearGradient4005);fill-opacity:1;fill-rule:nonzero;stroke:none;stroke-width:2;marker:none;visibility:visible;display:inline;overflow:visible;enable-background:accumulate;font-family:Sans;-inkscape-font-specification:Sans"
       d="M 3,0 C 1.3552972,0 0,1.3552972 0,3 l 0,10 c 0,1.644703 1.3552972,3 3,3 l 10,0 c 1.644703,0 3,-1.355297 3,-3 L 16,3 C 16,1.3552972 14.644703,0 13,0 L 3,0 z m 0,2 7,0 C 10,2 9.3010607,1.9746286 8.5625,2.34375 7.8239393,2.7128714 7.0011992,3.6663794 7,5 L 6,4.96875 5,4.9375 5,5.96875 5,8.03125 5,9.0625 6,9.03125 7,9 7,13 7,14 3,14 C 2.4287028,14 2,13.571297 2,13 L 2,3 C 2,2.4287028 2.4287028,2 3,2 z m 10,0 c 0.571297,0 1,0.4287028 1,1 l 0,10 c 0,0.571297 -0.428703,1 -1,1 l -2,0 0,-1 0,-4 1,0 1,0 0,-1 0,-2 0,-1 0,-2 0,-1 z m -3,2 1,0 C 10.156027,4.0073683 9.4276767,4.5791277 9.1875,5.09375 8.962259,5.5763697 8.995346,5.9460414 9,6 9,6 8.9993958,5.6866497 9,5 9.0006008,4.3318599 9.1765107,4.2866885 9.4375,4.15625 9.6984893,4.0258115 10,4 10,4 z M 9,6.0625 9.0625,7 9,7 9,6.96875 9,6.0625 z"
       id="path3856-5"
       inkscape:connector-curvature="0" />
    <path
       id="path3833"
       d="m 3,2.0000003 c -1.108,0 -2,0.892 -2,2 L 1,14 c 0,1.108 0.892,2 2,2 l 10,0 c 1.108,0 2,-0.892 2,-2 l 0,-9.9999997 c 0,-1.108 -0.892,-2 -2,-2 l -10,0 z m 6.9999999,2 2.0000001,0 0,2 c 0,0 -0.779152,-0.00193 -1,0 -1.0709541,0.00935 -1.0000001,1 -1.0000001,1 l 2.0000001,0 0,2 -2.0000001,0 0,4.9999997 -2,0 0,-4.9999997 -2,0.03125 0,-2.0625 2,0.03125 c 0,0 -6.05e-4,-0.312497 0,-1 0.0018,-2.0017607 2,-2 2,-2 z"
       style="opacity:0.5;fill:#000000;fill-opacity:1;fill-rule:nonzero;stroke:none;display:inline"
       inkscape:connector-curvature="0" />
    <path
       inkscape:connector-curvature="0"
       id="path3856"
       d="M 3,1 C 1.892,1 1,1.892 1,3 l 0,10 c 0,1.108 0.892,2 2,2 l 10,0 c 1.108,0 2,-0.892 2,-2 L 15,3 C 15,1.892 14.108,1 13,1 L 3,1 z m 7,2 2,0 0,2 C 12,5 11.220848,4.99807 11,5 9.929046,5.00935 10,6 10,6 l 2,0 0,2 -2,0 0,5 L 8,13 8,8 6,8.03125 6,5.96875 8,6 C 8,6 7.9993952,5.687503 8,5 8.0017609,2.9982393 10,3 10,3 z"
       style="fill:url(#linearGradient4003);fill-opacity:1;fill-rule:nonzero;stroke:none" />
  </g>
  <g
     inkscape:groupmode="layer"
     id="g3927"
     inkscape:label="Error"
     style="display:none"
     sodipodi:insensitive="true">
    <path
       inkscape:connector-curvature="0"
       id="path3929"
       d="M 3,0 C 1.3552972,0 0,1.3552972 0,3 l 0,10 c 0,1.644703 1.3552972,3 3,3 l 10,0 c 1.644703,0 3,-1.355297 3,-3 L 16,3 C 16,1.3552972 14.644703,0 13,0 L 3,0 z m 0,2 7,0 C 10,2 9.3010607,1.9746286 8.5625,2.34375 7.8239393,2.7128714 7.0011992,3.6663794 7,5 L 6,4.96875 5,4.9375 5,5.96875 5,8.03125 5,9.0625 6,9.03125 7,9 7,13 7,14 3,14 C 2.4287028,14 2,13.571297 2,13 L 2,3 C 2,2.4287028 2.4287028,2 3,2 z m 10,0 c 0.571297,0 1,0.4287028 1,1 l 0,10 c 0,0.571297 -0.428703,1 -1,1 l -2,0 0,-1 0,-4 1,0 1,0 0,-1 0,-2 0,-1 0,-2 0,-1 z m -3,2 1,0 C 10.156027,4.0073683 9.4276767,4.5791277 9.1875,5.09375 8.962259,5.5763697 8.995346,5.9460414 9,6 9,6 8.9993958,5.6866497 9,5 9.0006008,4.3318599 9.1765107,4.2866885 9.4375,4.15625 9.6984893,4.0258115 10,4 10,4 z M 9,6.0625 9.0625,7 9,7 9,6.96875 9,6.0625 z"
       style="font-size:medium;font-style:normal;font-variant:normal;font-weight:normal;font-stretch:normal;text-indent:0;text-align:start;text-decoration:none;line-height:normal;letter-spacing:normal;word-spacing:normal;text-transform:none;direction:ltr;block-progression:tb;writing-mode:lr-tb;text-anchor:start;baseline-shift:baseline;opacity:0.15;color:#000000;fill:url(#linearGradient3923);fill-opacity:1;fill-rule:nonzero;stroke:none;stroke-width:2;marker:none;visibility:visible;display:inline;overflow:visible;enable-background:accumulate;font-family:Sans;-inkscape-font-specification:Sans" />
    <path
       id="path3833-3"
       d="m 3,2.0000004 c -1.108,0 -2,0.892 -2,2 L 1,14 c 0,1.108 0.892,2 2,2 l 10,0 c 1.108,0 2,-0.892 2,-2 l 0,-9.9999996 c 0,-1.108 -0.892,-2 -2,-2 l -10,0 z m 6.9999997,2 2.0000003,0 0,2 c 0,0 -0.779152,-0.00193 -1,0 -1.0709543,0.00935 -1.0000003,1 -1.0000003,1 l 2.0000003,0 0,2 -2.0000003,0 0,4.9999996 -2,0 0,-4.9999996 -2,0.03125 0,-2.0625 2,0.03125 c 0,0 -6.04e-4,-0.312497 0,-1 0.0018,-2.0017607 2,-2 2,-2 z"
       style="opacity:0.5;fill:#000000;fill-opacity:1;fill-rule:nonzero;stroke:none;display:inline"
       inkscape:connector-curvature="0" />
    <path
       style="fill:url(#linearGradient3866);fill-opacity:1;fill-rule:nonzero;stroke:none"
       d="M 3,1 C 1.892,1 1,1.892 1,3 l 0,10 c 0,1.108 0.892,2 2,2 l 10,0 c 1.108,0 2,-0.892 2,-2 L 15,3 C 15,1.892 14.108,1 13,1 L 3,1 z m 7,2 2,0 0,2 C 12,5 11.220848,4.99807 11,5 9.929046,5.00935 10,6 10,6 l 2,0 0,2 -2,0 0,5 L 8,13 8,8 6,8.03125 6,5.96875 8,6 C 8,6 7.9993952,5.687503 8,5 8.0017609,2.9982393 10,3 10,3 z"
       id="path3931"
       inkscape:connector-curvature="0" />
  </g>
</svg>
